<svg id="Layer_1" data-name="Layer 1" xmlns="http://www.w3.org/2000/svg" viewBox="0 0 255.29 100"><defs><style>.cls-1,.cls-2,.cls-4{fill:#fff;}.cls-2{font-size:22px;font-family:Baskerville;letter-spacing:-0.1em;}.cls-3{letter-spacing:0.02em;}.cls-4{font-size:24px;font-family:TrebuchetMS, Trebuchet MS;letter-spacing:0.01em;}.cls-5{letter-spacing:-0.03em;}.cls-6{letter-spacing:-0.01em;}.cls-7{letter-spacing:-0.05em;}</style></defs><path class="cls-1" d="M77.53,53H89.25V81.1H77.53Z" transform="translate(-0.11 -0.63)"/><path class="cls-1" d="M55.34,53H67.06V81.1H55.34Z" transform="translate(-0.11 -0.63)"/><path class="cls-1" d="M33.15,53H44.87V81.1H33.15Z" transform="translate(-0.11 -0.63)"/><path class="cls-1" d="M11,52H22.68V80.1H11Z" transform="translate(-0.11 -0.63)"/><path class="cls-1" d="M93.16,44.25V41.32H7.06v2.93A2.93,2.93,0,0,0,10,47.18H90.23A2.93,2.93,0,0,0,93.16,44.25Z" transform="translate(-0.11 -0.63)"/><path class="cls-1" d="M97.18,87H3A2.93,2.93,0,0,0,.11,89.89V97.7A2.93,2.93,0,0,0,3,100.63H97.18a2.93,2.93,0,0,0,2.93-2.93V89.89A2.93,2.93,0,0,0,97.18,87Z" transform="translate(-0.11 -0.63)"/><path class="cls-1" d="M3,35.46H97.18A2.92,2.92,0,0,0,98.71,30l-47.07-29a2.93,2.93,0,0,0-3.07,0L1.5,30A2.93,2.93,0,0,0,3,35.46Zm45.08-17.6h4a2.93,2.93,0,0,1,0,5.86h-4a2.93,2.93,0,0,1,0-5.86Z" transform="translate(-0.11 -0.63)"/><text class="cls-2" transform="translate(104.13 53.35)">V<tspan class="cls-3" x="13.95" y="0">ANCOUVER</tspan></text><text class="cls-4" transform="translate(105.13 77.27)">A<tspan class="cls-5" x="14.4" y="0">R</tspan><tspan class="cls-6" x="27.62" y="0">T</tspan><tspan x="41.36" y="0" xml:space="preserve"> GALLE</tspan><tspan class="cls-7" x="117.58" y="0">R</tspan><tspan class="cls-6" x="130.25" y="0">Y</tspan></text></svg>